<svg xmlns="http://www.w3.org/2000/svg" viewBox="0 0 24 24" width="24" height="24" fill="#a9a42c">
    <path d="M12 2.163c3.204 0 3.584.012 4.85.07 1.366.062 2.633.334 3.608 1.31.975.975 1.248 2.242 1.31 3.608.058 1.266.07 1.646.07 4.85s-.012 3.584-.07 4.85c-.062 1.366-.334 2.633-1.31 3.608-.975.975-2.242 1.248-3.608 1.31-1.266.058-1.646.07-4.85.07s-3.584-.012-4.85-.07c-1.366-.062-2.633-.334-3.608-1.31-.975-.975-1.248-2.242-1.31-3.608-.058-1.266-.07-1.646-.07-4.85s.012-3.584.07-4.85c.062-1.366.334-2.633 1.31-3.608.975-.975 2.242-1.248 3.608-1.31 1.266-.058 1.646-.07 4.85-.07zm0-2.163c-3.259 0-3.667.014-4.947.072-1.281.058-2.418.27-3.29 1.142-.872.872-1.084 2.009-1.142 3.29-.058 1.28-.072 1.688-.072 4.947s.014 3.667.072 4.947c.058 1.281.27 2.418 1.142 3.29.872.872 2.009 1.084 3.29 1.142 1.28.058 1.688.072 4.947.072s3.667-.014 4.947-.072c1.281-.058 2.418-.27 3.29-1.142.872-.872 1.084-2.009 1.142-3.29.058-1.28.072-1.688.072-4.947s-.014-3.667-.072-4.947c-.058-1.281-.27-2.418-1.142-3.29-.872-.872-2.009-1.084-3.29-1.142-1.28-.058-1.688-.072-4.947-.072zm0 5.838a6.162 6.162 0 100 12.324 6.162 6.162 0 000-12.324zm0 10.162a3.999 3.999 0 110-7.998 3.999 3.999 0 010 7.998zm6.406-11.845a1.44 1.44 0 11-2.88 0 1.44 1.44 0 012.88 0z"/>
</svg>