<svg xmlns="http://www.w3.org/2000/svg" viewBox="0 0 24 24" width="24" height="24" fill="#a9a42c">
    <path d="M24 4.557a9.83 9.83 0 01-2.828.775 4.932 4.932 0 002.165-2.724 9.864 9.864 0 01-3.127 1.195 4.92 4.92 0 00-8.384 4.482A13.978 13.978 0 011.671 3.149a4.92 4.92 0 001.523 6.573 4.903 4.903 0 01-2.229-.616c-.054 2.281 1.581 4.415 3.949 4.89a4.935 4.935 0 01-2.224.084 4.928 4.928 0 004.604 3.417A9.867 9.867 0 010 21.543a13.94 13.94 0 007.548 2.212c9.142 0 14.307-7.721 13.995-14.646A9.935 9.935 0 0024 4.557z"/>
</svg>